<svg xmlns="http://www.w3.org/2000/svg" viewBox="0 0 400 500" fill="none">
  <defs>
    <mask id="stamp-mask">
      <rect width="400" height="500" fill="white" rx="4"/>
      <!-- Top scallops -->
      <circle cx="20" cy="0" r="8" fill="black"/><circle cx="44" cy="0" r="8" fill="black"/><circle cx="68" cy="0" r="8" fill="black"/><circle cx="92" cy="0" r="8" fill="black"/><circle cx="116" cy="0" r="8" fill="black"/><circle cx="140" cy="0" r="8" fill="black"/><circle cx="164" cy="0" r="8" fill="black"/><circle cx="188" cy="0" r="8" fill="black"/><circle cx="212" cy="0" r="8" fill="black"/><circle cx="236" cy="0" r="8" fill="black"/><circle cx="260" cy="0" r="8" fill="black"/><circle cx="284" cy="0" r="8" fill="black"/><circle cx="308" cy="0" r="8" fill="black"/><circle cx="332" cy="0" r="8" fill="black"/><circle cx="356" cy="0" r="8" fill="black"/><circle cx="380" cy="0" r="8" fill="black"/>
      <!-- Bottom scallops -->
      <circle cx="20" cy="500" r="8" fill="black"/><circle cx="44" cy="500" r="8" fill="black"/><circle cx="68" cy="500" r="8" fill="black"/><circle cx="92" cy="500" r="8" fill="black"/><circle cx="116" cy="500" r="8" fill="black"/><circle cx="140" cy="500" r="8" fill="black"/><circle cx="164" cy="500" r="8" fill="black"/><circle cx="188" cy="500" r="8" fill="black"/><circle cx="212" cy="500" r="8" fill="black"/><circle cx="236" cy="500" r="8" fill="black"/><circle cx="260" cy="500" r="8" fill="black"/><circle cx="284" cy="500" r="8" fill="black"/><circle cx="308" cy="500" r="8" fill="black"/><circle cx="332" cy="500" r="8" fill="black"/><circle cx="356" cy="500" r="8" fill="black"/><circle cx="380" cy="500" r="8" fill="black"/>
      <!-- Left scallops -->
      <circle cx="0" cy="20" r="8" fill="black"/><circle cx="0" cy="44" r="8" fill="black"/><circle cx="0" cy="68" r="8" fill="black"/><circle cx="0" cy="92" r="8" fill="black"/><circle cx="0" cy="116" r="8" fill="black"/><circle cx="0" cy="140" r="8" fill="black"/><circle cx="0" cy="164" r="8" fill="black"/><circle cx="0" cy="188" r="8" fill="black"/><circle cx="0" cy="212" r="8" fill="black"/><circle cx="0" cy="236" r="8" fill="black"/><circle cx="0" cy="260" r="8" fill="black"/><circle cx="0" cy="284" r="8" fill="black"/><circle cx="0" cy="308" r="8" fill="black"/><circle cx="0" cy="332" r="8" fill="black"/><circle cx="0" cy="356" r="8" fill="black"/><circle cx="0" cy="380" r="8" fill="black"/><circle cx="0" cy="404" r="8" fill="black"/><circle cx="0" cy="428" r="8" fill="black"/><circle cx="0" cy="452" r="8" fill="black"/><circle cx="0" cy="476" r="8" fill="black"/>
      <!-- Right scallops -->
      <circle cx="400" cy="20" r="8" fill="black"/><circle cx="400" cy="44" r="8" fill="black"/><circle cx="400" cy="68" r="8" fill="black"/><circle cx="400" cy="92" r="8" fill="black"/><circle cx="400" cy="116" r="8" fill="black"/><circle cx="400" cy="140" r="8" fill="black"/><circle cx="400" cy="164" r="8" fill="black"/><circle cx="400" cy="188" r="8" fill="black"/><circle cx="400" cy="212" r="8" fill="black"/><circle cx="400" cy="236" r="8" fill="black"/><circle cx="400" cy="260" r="8" fill="black"/><circle cx="400" cy="284" r="8" fill="black"/><circle cx="400" cy="308" r="8" fill="black"/><circle cx="400" cy="332" r="8" fill="black"/><circle cx="400" cy="356" r="8" fill="black"/><circle cx="400" cy="380" r="8" fill="black"/><circle cx="400" cy="404" r="8" fill="black"/><circle cx="400" cy="428" r="8" fill="black"/><circle cx="400" cy="452" r="8" fill="black"/><circle cx="400" cy="476" r="8" fill="black"/>
    </mask>
  </defs>
  <rect width="400" height="500" fill="#EDE9E3" mask="url(#stamp-mask)" rx="4"/>
</svg>
